# xmcd
#
# Track frame offsets: 
#        150
#        13096
#        25167
#        39727
#        61585
#        74987
#        89720
#        103496
#        117254
#        130086
#        143127
#        154354
#        171519
#        185124
#        196521
#        209373
#        222329
#        236411
#        249193
#        260995
#
# Disc length: 3647 seconds
#
# Revision: 6
# Processed by: cddbd v1.5.2PL0 Copyright (c) Steve Scherf et al.
# Submitted via: ExactAudioCopy v0.99pb4
#
DISCID=380e3d14
DTITLE=Muddy Waters - Muddy Waters - The Essential Collection
DYEAR=2000
DGENRE=Blues
TTITLE0=Got My Mojo Working
TTITLE1=Long Distance Call
TTITLE2=Close To You
TTITLE3=I'm Your Hoochie Coochie Man
TTITLE4=She Moves Me
TTITLE5=Baby Please Don't Go
TTITLE6=Mad Love (I Want You To Love Me)
TTITLE7=I'm Ready
TTITLE8=I Just Wanna Make Love To You
TTITLE9=I Love The Life I Live, I Live The Life I Love
TTITLE10=She's All Right
TTITLE11=Mannish Boy
TTITLE12=Young Fashioned Ways
TTITLE13=I Want To Be Loved
TTITLE14=Louisiana Blues
TTITLE15=Forty Days And Forty Nights
TTITLE16=Rollin' Stone
TTITLE17=Stuff You Gotta Watch
TTITLE18=Garbage Man
TTITLE19=Can't Get No Grindin'
EXTD=
EXTT0=
EXTT1=
EXTT2=
EXTT3=
EXTT4=
EXTT5=
EXTT6=
EXTT7=
EXTT8=
EXTT9=
EXTT10=
EXTT11=
EXTT12=
EXTT13=
EXTT14=
EXTT15=
EXTT16=
EXTT17=
EXTT18=
EXTT19=
PLAYORDER=
